<svg width="397" height="73" viewBox="0 0 397 73" fill="none" xmlns="http://www.w3.org/2000/svg">
<path d="M36.6818 50L37.0369 47.9972L52.4773 30.7528L52.5057 30.5682H40.4602L40.858 28.1818H56.1847L55.8295 30.2699L40.6307 47.429L40.6023 47.6136H53.4006L53.0028 50H36.6818ZM73.8018 35.7386L74.1996 33.3949H90.3643L89.9666 35.7386H73.8018ZM72.4524 43.8778L72.8501 41.5341H89.0291L88.6314 43.8778H72.4524ZM110.226 37.7273C110.794 34.3182 111.755 31.0985 113.109 28.0682C114.473 25.0379 116.182 22.197 118.237 19.5455H120.538C119.667 20.6534 118.824 21.9176 118.01 23.3381C117.205 24.7491 116.462 26.2547 115.78 27.8551C115.107 29.4555 114.516 31.0937 114.004 32.7699C113.502 34.4366 113.114 36.089 112.839 37.7273C112.48 39.9148 112.314 42.1212 112.342 44.3466C112.371 46.572 112.57 48.6837 112.939 50.6818C113.318 52.6799 113.843 54.4223 114.516 55.9091H112.214C111.05 53.2481 110.283 50.4025 109.913 47.3722C109.554 44.3419 109.658 41.1269 110.226 37.7273ZM150.911 52.9119L150.513 55.2983H129.817L130.3 52.9119H150.911ZM154.533 20.9091L154.15 23.2955H134.519L134.917 20.9091H154.533ZM147.531 37.8977L147.36 38.7926L130.229 55.2983H128.667L129.022 53.054L144.519 38.2812L133.979 23.1818L134.349 20.9091H135.854L147.531 37.8977ZM172.3 28.1818L176.391 37.4858L183.578 28.1818H186.533L177.669 39.1335L182.868 50H179.956L175.837 41.0085L168.72 50H165.737L174.516 39.0767L169.402 28.1818H172.3ZM186.138 55L188.582 40.4545H190.869L188.425 55H186.138ZM190.229 38.2386C189.756 38.2386 189.406 38.0871 189.178 37.7841C188.951 37.4716 188.852 37.1496 188.88 36.8182C188.908 36.4962 189.06 36.1932 189.335 35.9091C189.619 35.6155 189.96 35.4688 190.357 35.4688C190.727 35.4688 191.053 35.5919 191.337 35.8381C191.631 36.0843 191.754 36.4441 191.707 36.9176C191.659 37.3343 191.484 37.661 191.181 37.8977C190.878 38.125 190.561 38.2386 190.229 38.2386ZM223.273 47.4574L209.92 31.4347L211.71 29.929L225.062 45.9517L223.273 47.4574ZM209.125 47.4432L207.591 45.6676L225.986 29.9432L227.506 31.7188L209.125 47.4432ZM248.106 50L245.151 28.1818H247.808L249.981 46.179H250.165L258.319 28.1818H261.004L263.12 46.1364H263.319L271.472 28.1818H274.171L263.944 50H261.33L259.114 32.1449H258.844L250.719 50H248.106ZM273.404 55L275.847 40.4545H278.134L275.691 55H273.404ZM277.495 38.2386C277.022 38.2386 276.671 38.0871 276.444 37.7841C276.217 37.4716 276.117 37.1496 276.146 36.8182C276.174 36.4962 276.326 36.1932 276.6 35.9091C276.884 35.6155 277.225 35.4688 277.623 35.4688C277.992 35.4688 278.319 35.5919 278.603 35.8381C278.897 36.0843 279.02 36.4441 278.972 36.9176C278.925 37.3343 278.75 37.661 278.447 37.8977C278.144 38.125 277.826 38.2386 277.495 38.2386ZM301.405 37.7273C300.837 41.1364 299.871 44.3561 298.507 47.3864C297.153 50.4167 295.448 53.2576 293.393 55.9091H291.092C291.973 54.7917 292.816 53.5275 293.621 52.1165C294.426 50.7055 295.164 49.1998 295.837 47.5994C296.518 45.9991 297.11 44.3608 297.612 42.6847C298.124 41.0085 298.517 39.3561 298.791 37.7273C299.151 35.5398 299.317 33.3333 299.288 31.108C299.26 28.8826 299.056 26.7708 298.678 24.7727C298.308 22.7746 297.787 21.0322 297.115 19.5455H299.416C300.581 22.2064 301.343 25.0521 301.703 28.0824C302.072 31.1127 301.973 34.3277 301.405 37.7273ZM315.968 47.6278L318.937 29.6449H321.38L318.411 47.6278H315.968ZM309.477 39.8438L309.888 37.429H327.886L327.46 39.8438H309.477ZM333.67 50L338.5 20.9091H341.043L339.168 32.3438H339.395C339.783 31.6903 340.299 31.018 340.943 30.3267C341.597 29.6354 342.402 29.0578 343.358 28.5938C344.314 28.1203 345.46 27.8835 346.795 27.8835C348.585 27.8835 350.077 28.357 351.27 29.304C352.473 30.2415 353.311 31.5578 353.784 33.2528C354.258 34.9384 354.31 36.9034 353.94 39.1477C353.562 41.4015 352.856 43.3759 351.824 45.071C350.792 46.7661 349.523 48.0871 348.017 49.0341C346.511 49.9811 344.868 50.4545 343.088 50.4545C341.762 50.4545 340.692 50.2178 339.878 49.7443C339.073 49.2708 338.457 48.6884 338.031 47.9972C337.615 47.2964 337.312 46.6146 337.122 45.9517H336.81L336.128 50H333.67ZM337.989 39.1051C337.705 40.8665 337.705 42.429 337.989 43.7926C338.282 45.1468 338.855 46.2121 339.707 46.9886C340.569 47.7557 341.705 48.1392 343.116 48.1392C344.565 48.1392 345.858 47.7415 346.994 46.946C348.14 46.1411 349.087 45.0568 349.835 43.6932C350.593 42.3295 351.114 40.8002 351.398 39.1051C351.672 37.429 351.668 35.9186 351.384 34.5739C351.099 33.2292 350.527 32.1638 349.665 31.3778C348.803 30.5824 347.643 30.1847 346.185 30.1847C344.764 30.1847 343.486 30.5682 342.349 31.3352C341.223 32.0928 340.285 33.1439 339.537 34.4886C338.789 35.8239 338.273 37.3627 337.989 39.1051Z" fill="white"/>
<path d="M141.772 9.40625L141.016 14H139.843L141.116 6.36364H142.249L142.05 7.55682H142.15C142.388 7.16903 142.711 6.85748 143.119 6.62216C143.527 6.38352 144.019 6.2642 144.596 6.2642C145.106 6.2642 145.537 6.37027 145.888 6.58239C146.243 6.79119 146.493 7.10938 146.639 7.53693C146.788 7.96117 146.81 8.49811 146.704 9.14773L145.888 14H144.715L145.51 9.22727C145.61 8.63068 145.532 8.16335 145.277 7.82528C145.025 7.48722 144.625 7.31818 144.079 7.31818C143.701 7.31818 143.351 7.39938 143.03 7.56179C142.711 7.72419 142.441 7.96117 142.219 8.27273C142 8.58428 141.851 8.96212 141.772 9.40625Z" fill="white"/>
<path d="M131.908 70L133.181 62.3636H134.354L133.081 70H131.908ZM134.126 61.071C133.897 61.071 133.7 60.9931 133.534 60.8374C133.372 60.6816 133.29 60.4943 133.29 60.2756C133.29 60.0568 133.372 59.8696 133.534 59.7138C133.7 59.558 133.897 59.4801 134.126 59.4801C134.354 59.4801 134.55 59.558 134.712 59.7138C134.878 59.8696 134.961 60.0568 134.961 60.2756C134.961 60.4943 134.878 60.6816 134.712 60.8374C134.55 60.9931 134.354 61.071 134.126 61.071ZM136.523 65.0881L136.702 64.0142H142.827L142.648 65.0881H136.523ZM136.036 68.0312L136.215 66.9574H142.34L142.161 68.0312H136.036ZM149.709 59.8182L148.019 70H146.786L148.257 61.1108H148.198L145.433 62.7614L145.652 61.5085L148.476 59.8182H149.709Z" fill="white"/>
</svg>
